<?xml version="1.0" encoding="us-ascii" standalone="no"?><svg xmlns="http://www.w3.org/2000/svg" xmlns:xlink="http://www.w3.org/1999/xlink" contentStyleType="text/css" height="844px" preserveAspectRatio="none" style="width:2022px;height:844px;background:#FFFFFF;" version="1.1" viewBox="0 0 2022 844" width="2022px" zoomAndPan="magnify"><defs/><g><text fill="#000000" font-family="sans-serif" font-size="14" font-weight="bold" lengthAdjust="spacing" textLength="368" x="820" y="24.9659">Teatro &#8212; Compra de Entradas y Tickets (nivel b&#225;sico)</text><!--class EstadoCompra--><g id="elem_EstadoCompra"><rect codeLine="13" fill="#F1F1F1" height="105.2038" id="EstadoCompra" rx="5" ry="5" style="stroke:#181818;stroke-width:0.5;" width="130" x="7" y="85.0679"/><ellipse cx="22" cy="101.0679" fill="#EB937F" rx="11" ry="11" style="stroke:#181818;stroke-width:1.0;"/><path d="M26.1094,107.0679 L18.3906,107.0679 L18.3906,94.6773 L26.1094,94.6773 L26.1094,96.8335 L20.8438,96.8335 L20.8438,99.5054 L25.6094,99.5054 L25.6094,101.6617 L20.8438,101.6617 L20.8438,104.9117 L26.1094,104.9117 L26.1094,107.0679 Z " fill="#000000"/><text fill="#000000" font-family="sans-serif" font-size="14" lengthAdjust="spacing" textLength="98" x="36" y="106.4999">EstadoCompra</text><line style="stroke:#181818;stroke-width:0.5;" x1="8" x2="136" y1="117.0679" y2="117.0679"/><text fill="#000000" font-family="sans-serif" font-size="14" lengthAdjust="spacing" textLength="77" x="13" y="136.0339">PENDIENTE</text><text fill="#000000" font-family="sans-serif" font-size="14" lengthAdjust="spacing" textLength="55" x="13" y="155.1018">PAGADA</text><text fill="#000000" font-family="sans-serif" font-size="14" lengthAdjust="spacing" textLength="81" x="13" y="174.1697">CANCELADA</text><line style="stroke:#181818;stroke-width:0.5;" x1="8" x2="136" y1="182.2717" y2="182.2717"/></g><!--class TipoEntrada--><g id="elem_TipoEntrada"><rect codeLine="19" fill="#F1F1F1" height="105.2038" id="TipoEntrada" rx="5" ry="5" style="stroke:#181818;stroke-width:0.5;" width="114" x="172" y="85.0679"/><ellipse cx="187" cy="101.0679" fill="#EB937F" rx="11" ry="11" style="stroke:#181818;stroke-width:1.0;"/><path d="M191.1094,107.0679 L183.3906,107.0679 L183.3906,94.6773 L191.1094,94.6773 L191.1094,96.8335 L185.8438,96.8335 L185.8438,99.5054 L190.6094,99.5054 L190.6094,101.6617 L185.8438,101.6617 L185.8438,104.9117 L191.1094,104.9117 L191.1094,107.0679 Z " fill="#000000"/><text fill="#000000" font-family="sans-serif" font-size="14" lengthAdjust="spacing" textLength="82" x="201" y="106.4999">TipoEntrada</text><line style="stroke:#181818;stroke-width:0.5;" x1="173" x2="285" y1="117.0679" y2="117.0679"/><text fill="#000000" font-family="sans-serif" font-size="14" lengthAdjust="spacing" textLength="62" x="178" y="136.0339">GENERAL</text><text fill="#000000" font-family="sans-serif" font-size="14" lengthAdjust="spacing" textLength="85" x="178" y="155.1018">ESTUDIANTE</text><text fill="#000000" font-family="sans-serif" font-size="14" lengthAdjust="spacing" textLength="21" x="178" y="174.1697">VIP</text><line style="stroke:#181818;stroke-width:0.5;" x1="173" x2="285" y1="182.2717" y2="182.2717"/></g><!--class Usuario--><g id="elem_Usuario"><rect codeLine="28" fill="#F1F1F1" height="181.4754" id="Usuario" rx="5" ry="5" style="stroke:#181818;stroke-width:0.5;" width="165" x="321.5" y="47.0679"/><ellipse cx="373.75" cy="63.0679" fill="#ADD1B2" rx="11" ry="11" style="stroke:#181818;stroke-width:1.0;"/><path d="M376.7188,68.7085 Q376.1406,69.0054 375.5,69.146 Q374.8594,69.3023 374.1563,69.3023 Q371.6563,69.3023 370.3281,67.6617 Q369.0156,66.0054 369.0156,62.8804 Q369.0156,59.7554 370.3281,58.0992 Q371.6563,56.4429 374.1563,56.4429 Q374.8594,56.4429 375.5,56.5992 Q376.1563,56.7554 376.7188,57.0523 L376.7188,59.771 Q376.0938,59.1929 375.5,58.9273 Q374.9063,58.646 374.2813,58.646 Q372.9375,58.646 372.25,59.7242 Q371.5625,60.7867 371.5625,62.8804 Q371.5625,64.9742 372.25,66.0523 Q372.9375,67.1148 374.2813,67.1148 Q374.9063,67.1148 375.5,66.8492 Q376.0938,66.5679 376.7188,65.9898 L376.7188,68.7085 Z " fill="#000000"/><text fill="#000000" font-family="sans-serif" font-size="14" lengthAdjust="spacing" textLength="52" x="394.25" y="68.4999">Usuario</text><line style="stroke:#181818;stroke-width:0.5;" x1="322.5" x2="485.5" y1="79.0679" y2="79.0679"/><text fill="#000000" font-family="sans-serif" font-size="14" lengthAdjust="spacing" textLength="44" x="327.5" y="98.0339">-id: int</text><text fill="#000000" font-family="sans-serif" font-size="14" lengthAdjust="spacing" textLength="107" x="327.5" y="117.1018">-nombre: String</text><text fill="#000000" font-family="sans-serif" font-size="14" lengthAdjust="spacing" textLength="91" x="327.5" y="136.1697">-email: String</text><text fill="#000000" font-family="sans-serif" font-size="14" lengthAdjust="spacing" textLength="119" x="327.5" y="155.2376">-password: String</text><text fill="#000000" font-family="sans-serif" font-size="14" lengthAdjust="spacing" textLength="153" x="327.5" y="174.3055">-tarjetaNumero: String</text><text fill="#000000" font-family="sans-serif" font-size="14" lengthAdjust="spacing" textLength="123" x="327.5" y="193.3734">-tarjetaCVV: String</text><text fill="#000000" font-family="sans-serif" font-size="14" lengthAdjust="spacing" textLength="106" x="327.5" y="212.4414">-activo: Boolean</text><line style="stroke:#181818;stroke-width:0.5;" x1="322.5" x2="485.5" y1="220.5433" y2="220.5433"/></g><!--class Teatro--><g id="elem_Teatro"><rect codeLine="38" fill="#F1F1F1" height="105.2038" id="Teatro" rx="5" ry="5" style="stroke:#181818;stroke-width:0.5;" width="128" x="635" y="326.0679"/><ellipse cx="673.85" cy="342.0679" fill="#ADD1B2" rx="11" ry="11" style="stroke:#181818;stroke-width:1.0;"/><path d="M676.8188,347.7085 Q676.2406,348.0054 675.6,348.146 Q674.9594,348.3023 674.2563,348.3023 Q671.7563,348.3023 670.4281,346.6617 Q669.1156,345.0054 669.1156,341.8804 Q669.1156,338.7554 670.4281,337.0992 Q671.7563,335.4429 674.2563,335.4429 Q674.9594,335.4429 675.6,335.5992 Q676.2563,335.7554 676.8188,336.0523 L676.8188,338.771 Q676.1938,338.1929 675.6,337.9273 Q675.0063,337.646 674.3813,337.646 Q673.0375,337.646 672.35,338.7242 Q671.6625,339.7867 671.6625,341.8804 Q671.6625,343.9742 672.35,345.0523 Q673.0375,346.1148 674.3813,346.1148 Q675.0063,346.1148 675.6,345.8492 Q676.1938,345.5679 676.8188,344.9898 L676.8188,347.7085 Z " fill="#000000"/><text fill="#000000" font-family="sans-serif" font-size="14" lengthAdjust="spacing" textLength="43" x="693.15" y="347.4999">Teatro</text><line style="stroke:#181818;stroke-width:0.5;" x1="636" x2="762" y1="358.0679" y2="358.0679"/><text fill="#000000" font-family="sans-serif" font-size="14" lengthAdjust="spacing" textLength="44" x="641" y="377.0339">-id: int</text><text fill="#000000" font-family="sans-serif" font-size="14" lengthAdjust="spacing" textLength="107" x="641" y="396.1018">-nombre: String</text><text fill="#000000" font-family="sans-serif" font-size="14" lengthAdjust="spacing" textLength="116" x="641" y="415.1697">-direccion: String</text><line style="stroke:#181818;stroke-width:0.5;" x1="636" x2="762" y1="423.2717" y2="423.2717"/></g><!--class Funcion--><g id="elem_Funcion"><rect codeLine="44" fill="#F1F1F1" height="105.2038" id="Funcion" rx="5" ry="5" style="stroke:#181818;stroke-width:0.5;" width="146" x="626" y="538.5679"/><ellipse cx="668.45" cy="554.5679" fill="#ADD1B2" rx="11" ry="11" style="stroke:#181818;stroke-width:1.0;"/><path d="M671.4188,560.2085 Q670.8406,560.5054 670.2,560.646 Q669.5594,560.8023 668.8563,560.8023 Q666.3563,560.8023 665.0281,559.1617 Q663.7156,557.5054 663.7156,554.3804 Q663.7156,551.2554 665.0281,549.5992 Q666.3563,547.9429 668.8563,547.9429 Q669.5594,547.9429 670.2,548.0992 Q670.8563,548.2554 671.4188,548.5523 L671.4188,551.271 Q670.7938,550.6929 670.2,550.4273 Q669.6063,550.146 668.9813,550.146 Q667.6375,550.146 666.95,551.2242 Q666.2625,552.2867 666.2625,554.3804 Q666.2625,556.4742 666.95,557.5523 Q667.6375,558.6148 668.9813,558.6148 Q669.6063,558.6148 670.2,558.3492 Q670.7938,558.0679 671.4188,557.4898 L671.4188,560.2085 Z " fill="#000000"/><text fill="#000000" font-family="sans-serif" font-size="14" lengthAdjust="spacing" textLength="53" x="688.55" y="559.9999">Funcion</text><line style="stroke:#181818;stroke-width:0.5;" x1="627" x2="771" y1="570.5679" y2="570.5679"/><text fill="#000000" font-family="sans-serif" font-size="14" lengthAdjust="spacing" textLength="44" x="632" y="589.5339">-id: int</text><text fill="#000000" font-family="sans-serif" font-size="14" lengthAdjust="spacing" textLength="113" x="632" y="608.6018">-fechaHora: Date</text><text fill="#000000" font-family="sans-serif" font-size="14" lengthAdjust="spacing" textLength="134" x="632" y="627.6697">-precioBase: double</text><line style="stroke:#181818;stroke-width:0.5;" x1="627" x2="771" y1="635.7717" y2="635.7717"/></g><!--class Asiento--><g id="elem_Asiento"><rect codeLine="50" fill="#F1F1F1" height="105.2038" id="Asiento" rx="5" ry="5" style="stroke:#181818;stroke-width:0.5;" width="111" x="522.5" y="732.0679"/><ellipse cx="550.55" cy="748.0679" fill="#ADD1B2" rx="11" ry="11" style="stroke:#181818;stroke-width:1.0;"/><path d="M553.5188,753.7085 Q552.9406,754.0054 552.3,754.146 Q551.6594,754.3023 550.9563,754.3023 Q548.4563,754.3023 547.1281,752.6617 Q545.8156,751.0054 545.8156,747.8804 Q545.8156,744.7554 547.1281,743.0992 Q548.4563,741.4429 550.9563,741.4429 Q551.6594,741.4429 552.3,741.5992 Q552.9563,741.7554 553.5188,742.0523 L553.5188,744.771 Q552.8938,744.1929 552.3,743.9273 Q551.7063,743.646 551.0813,743.646 Q549.7375,743.646 549.05,744.7242 Q548.3625,745.7867 548.3625,747.8804 Q548.3625,749.9742 549.05,751.0523 Q549.7375,752.1148 551.0813,752.1148 Q551.7063,752.1148 552.3,751.8492 Q552.8938,751.5679 553.5188,750.9898 L553.5188,753.7085 Z " fill="#000000"/><text fill="#000000" font-family="sans-serif" font-size="14" lengthAdjust="spacing" textLength="50" x="567.45" y="753.4999">Asiento</text><line style="stroke:#181818;stroke-width:0.5;" x1="523.5" x2="632.5" y1="764.0679" y2="764.0679"/><text fill="#000000" font-family="sans-serif" font-size="14" lengthAdjust="spacing" textLength="75" x="528.5" y="783.0339">-fila: String</text><text fill="#000000" font-family="sans-serif" font-size="14" lengthAdjust="spacing" textLength="84" x="528.5" y="802.1018">-numero: int</text><text fill="#000000" font-family="sans-serif" font-size="14" lengthAdjust="spacing" textLength="99" x="528.5" y="821.1697">-estado: String</text><line style="stroke:#181818;stroke-width:0.5;" x1="523.5" x2="632.5" y1="829.2717" y2="829.2717"/></g><!--class Entrada--><g id="elem_Entrada"><rect codeLine="56" fill="#F1F1F1" height="105.2038" id="Entrada" rx="5" ry="5" style="stroke:#181818;stroke-width:0.5;" width="114" x="160" y="732.0679"/><ellipse cx="188.05" cy="748.0679" fill="#ADD1B2" rx="11" ry="11" style="stroke:#181818;stroke-width:1.0;"/><path d="M191.0188,753.7085 Q190.4406,754.0054 189.8,754.146 Q189.1594,754.3023 188.4563,754.3023 Q185.9563,754.3023 184.6281,752.6617 Q183.3156,751.0054 183.3156,747.8804 Q183.3156,744.7554 184.6281,743.0992 Q185.9563,741.4429 188.4563,741.4429 Q189.1594,741.4429 189.8,741.5992 Q190.4563,741.7554 191.0188,742.0523 L191.0188,744.771 Q190.3938,744.1929 189.8,743.9273 Q189.2063,743.646 188.5813,743.646 Q187.2375,743.646 186.55,744.7242 Q185.8625,745.7867 185.8625,747.8804 Q185.8625,749.9742 186.55,751.0523 Q187.2375,752.1148 188.5813,752.1148 Q189.2063,752.1148 189.8,751.8492 Q190.3938,751.5679 191.0188,750.9898 L191.0188,753.7085 Z " fill="#000000"/><text fill="#000000" font-family="sans-serif" font-size="14" lengthAdjust="spacing" textLength="53" x="204.95" y="753.4999">Entrada</text><line style="stroke:#181818;stroke-width:0.5;" x1="161" x2="273" y1="764.0679" y2="764.0679"/><text fill="#000000" font-family="sans-serif" font-size="14" lengthAdjust="spacing" textLength="44" x="166" y="783.0339">-id: int</text><text fill="#000000" font-family="sans-serif" font-size="14" lengthAdjust="spacing" textLength="80" x="166" y="802.1018">-tipo: String</text><text fill="#000000" font-family="sans-serif" font-size="14" lengthAdjust="spacing" textLength="102" x="166" y="821.1697">-precio: double</text><line style="stroke:#181818;stroke-width:0.5;" x1="161" x2="273" y1="829.2717" y2="829.2717"/></g><!--class Compra--><g id="elem_Compra"><rect codeLine="62" fill="#F1F1F1" height="143.3396" id="Compra" rx="5" ry="5" style="stroke:#181818;stroke-width:0.5;" width="168" x="220" y="307.0679"/><ellipse cx="273.25" cy="323.0679" fill="#ADD1B2" rx="11" ry="11" style="stroke:#181818;stroke-width:1.0;"/><path d="M276.2188,328.7085 Q275.6406,329.0054 275,329.146 Q274.3594,329.3023 273.6563,329.3023 Q271.1563,329.3023 269.8281,327.6617 Q268.5156,326.0054 268.5156,322.8804 Q268.5156,319.7554 269.8281,318.0992 Q271.1563,316.4429 273.6563,316.4429 Q274.3594,316.4429 275,316.5992 Q275.6563,316.7554 276.2188,317.0523 L276.2188,319.771 Q275.5938,319.1929 275,318.9273 Q274.4063,318.646 273.7813,318.646 Q272.4375,318.646 271.75,319.7242 Q271.0625,320.7867 271.0625,322.8804 Q271.0625,324.9742 271.75,326.0523 Q272.4375,327.1148 273.7813,327.1148 Q274.4063,327.1148 275,326.8492 Q275.5938,326.5679 276.2188,325.9898 L276.2188,328.7085 Z " fill="#000000"/><text fill="#000000" font-family="sans-serif" font-size="14" lengthAdjust="spacing" textLength="53" x="293.75" y="328.4999">Compra</text><line style="stroke:#181818;stroke-width:0.5;" x1="221" x2="387" y1="339.0679" y2="339.0679"/><text fill="#000000" font-family="sans-serif" font-size="14" lengthAdjust="spacing" textLength="44" x="226" y="358.0339">-id: int</text><text fill="#000000" font-family="sans-serif" font-size="14" lengthAdjust="spacing" textLength="81" x="226" y="377.1018">-fecha: Date</text><text fill="#000000" font-family="sans-serif" font-size="14" lengthAdjust="spacing" textLength="156" x="226" y="396.1697">-estado: EstadoCompra</text><text fill="#000000" font-family="sans-serif" font-size="14" lengthAdjust="spacing" textLength="90" x="226" y="415.2376">-total: double</text><text fill="#000000" font-family="sans-serif" font-size="14" lengthAdjust="spacing" textLength="90" x="226" y="434.3055">-cantidad: int</text><line style="stroke:#181818;stroke-width:0.5;" x1="221" x2="387" y1="442.4075" y2="442.4075"/></g><!--class Ticket--><g id="elem_Ticket"><rect codeLine="70" fill="#F1F1F1" height="124.2717" id="Ticket" rx="5" ry="5" style="stroke:#181818;stroke-width:0.5;" width="265" x="325.5" y="529.0679"/><ellipse cx="434.25" cy="545.0679" fill="#ADD1B2" rx="11" ry="11" style="stroke:#181818;stroke-width:1.0;"/><path d="M437.2188,550.7085 Q436.6406,551.0054 436,551.146 Q435.3594,551.3023 434.6563,551.3023 Q432.1563,551.3023 430.8281,549.6617 Q429.5156,548.0054 429.5156,544.8804 Q429.5156,541.7554 430.8281,540.0992 Q432.1563,538.4429 434.6563,538.4429 Q435.3594,538.4429 436,538.5992 Q436.6563,538.7554 437.2188,539.0523 L437.2188,541.771 Q436.5938,541.1929 436,540.9273 Q435.4063,540.646 434.7813,540.646 Q433.4375,540.646 432.75,541.7242 Q432.0625,542.7867 432.0625,544.8804 Q432.0625,546.9742 432.75,548.0523 Q433.4375,549.1148 434.7813,549.1148 Q435.4063,549.1148 436,548.8492 Q436.5938,548.5679 437.2188,547.9898 L437.2188,550.7085 Z " fill="#000000"/><text fill="#000000" font-family="sans-serif" font-size="14" lengthAdjust="spacing" textLength="39" x="454.75" y="550.4999">Ticket</text><line style="stroke:#181818;stroke-width:0.5;" x1="326.5" x2="589.5" y1="561.0679" y2="561.0679"/><text fill="#000000" font-family="sans-serif" font-size="14" lengthAdjust="spacing" textLength="44" x="331.5" y="580.0339">-id: int</text><text fill="#000000" font-family="sans-serif" font-size="14" lengthAdjust="spacing" textLength="119" x="331.5" y="599.1018">-codigoQR: String</text><text fill="#000000" font-family="sans-serif" font-size="14" lengthAdjust="spacing" textLength="99" x="331.5" y="618.1697">-estado: String</text><line style="stroke:#181818;stroke-width:0.5;" x1="326.5" x2="589.5" y1="626.2717" y2="626.2717"/><text fill="#000000" font-family="sans-serif" font-size="14" lengthAdjust="spacing" textLength="253" x="331.5" y="645.2376">+reenviarPorEmail(email: String): void</text></g><!--class IPasarelaPago--><g id="elem_IPasarelaPago"><rect codeLine="80" fill="#F1F1F1" height="67.0679" id="IPasarelaPago" rx="5" ry="5" style="stroke:#181818;stroke-width:0.5;" width="358" x="1065" y="345.0679"/><ellipse cx="1193.75" cy="361.0679" fill="#B4A7E5" rx="11" ry="11" style="stroke:#181818;stroke-width:1.0;"/><path d="M1189.6719,356.8335 L1189.6719,354.6773 L1197.0625,354.6773 L1197.0625,356.8335 L1194.5938,356.8335 L1194.5938,364.9117 L1197.0625,364.9117 L1197.0625,367.0679 L1189.6719,367.0679 L1189.6719,364.9117 L1192.1406,364.9117 L1192.1406,356.8335 L1189.6719,356.8335 Z " fill="#000000"/><text fill="#000000" font-family="sans-serif" font-size="14" font-style="italic" lengthAdjust="spacing" textLength="92" x="1214.25" y="366.4999">IPasarelaPago</text><line style="stroke:#181818;stroke-width:0.5;" x1="1066" x2="1422" y1="377.0679" y2="377.0679"/><line style="stroke:#181818;stroke-width:0.5;" x1="1066" x2="1422" y1="385.0679" y2="385.0679"/><text fill="#000000" font-family="sans-serif" font-size="14" lengthAdjust="spacing" textLength="346" x="1071" y="404.0339">+cobrar(monto: double, referencia: String): Boolean</text></g><!--class INotificador--><g id="elem_INotificador"><rect codeLine="84" fill="#F1F1F1" height="67.0679" id="INotificador" rx="5" ry="5" style="stroke:#181818;stroke-width:0.5;" width="320" x="1458" y="345.0679"/><ellipse cx="1575.75" cy="361.0679" fill="#B4A7E5" rx="11" ry="11" style="stroke:#181818;stroke-width:1.0;"/><path d="M1571.6719,356.8335 L1571.6719,354.6773 L1579.0625,354.6773 L1579.0625,356.8335 L1576.5938,356.8335 L1576.5938,364.9117 L1579.0625,364.9117 L1579.0625,367.0679 L1571.6719,367.0679 L1571.6719,364.9117 L1574.1406,364.9117 L1574.1406,356.8335 L1571.6719,356.8335 Z " fill="#000000"/><text fill="#000000" font-family="sans-serif" font-size="14" font-style="italic" lengthAdjust="spacing" textLength="76" x="1596.25" y="366.4999">INotificador</text><line style="stroke:#181818;stroke-width:0.5;" x1="1459" x2="1777" y1="377.0679" y2="377.0679"/><line style="stroke:#181818;stroke-width:0.5;" x1="1459" x2="1777" y1="385.0679" y2="385.0679"/><text fill="#000000" font-family="sans-serif" font-size="14" lengthAdjust="spacing" textLength="308" x="1464" y="404.0339">+notificar(email: String, mensaje: String): void</text></g><!--class ICompraRepository--><g id="elem_ICompraRepository"><rect codeLine="88" fill="#F1F1F1" height="67.0679" id="ICompraRepository" rx="5" ry="5" style="stroke:#181818;stroke-width:0.5;" width="231" x="798.5" y="345.0679"/><ellipse cx="848.75" cy="361.0679" fill="#B4A7E5" rx="11" ry="11" style="stroke:#181818;stroke-width:1.0;"/><path d="M844.6719,356.8335 L844.6719,354.6773 L852.0625,354.6773 L852.0625,356.8335 L849.5938,356.8335 L849.5938,364.9117 L852.0625,364.9117 L852.0625,367.0679 L844.6719,367.0679 L844.6719,364.9117 L847.1406,364.9117 L847.1406,356.8335 L844.6719,356.8335 Z " fill="#000000"/><text fill="#000000" font-family="sans-serif" font-size="14" font-style="italic" lengthAdjust="spacing" textLength="122" x="869.25" y="366.4999">ICompraRepository</text><line style="stroke:#181818;stroke-width:0.5;" x1="799.5" x2="1028.5" y1="377.0679" y2="377.0679"/><line style="stroke:#181818;stroke-width:0.5;" x1="799.5" x2="1028.5" y1="385.0679" y2="385.0679"/><text fill="#000000" font-family="sans-serif" font-size="14" lengthAdjust="spacing" textLength="219" x="804.5" y="404.0339">+guardar(compra: Compra): void</text></g><!--class ITicketRepository--><g id="elem_ITicketRepository"><rect codeLine="92" fill="#F1F1F1" height="67.0679" id="ITicketRepository" rx="5" ry="5" style="stroke:#181818;stroke-width:0.5;" width="202" x="1813" y="345.0679"/><ellipse cx="1855.9" cy="361.0679" fill="#B4A7E5" rx="11" ry="11" style="stroke:#181818;stroke-width:1.0;"/><path d="M1851.8219,356.8335 L1851.8219,354.6773 L1859.2125,354.6773 L1859.2125,356.8335 L1856.7438,356.8335 L1856.7438,364.9117 L1859.2125,364.9117 L1859.2125,367.0679 L1851.8219,367.0679 L1851.8219,364.9117 L1854.2906,364.9117 L1854.2906,356.8335 L1851.8219,356.8335 Z " fill="#000000"/><text fill="#000000" font-family="sans-serif" font-size="14" font-style="italic" lengthAdjust="spacing" textLength="108" x="1876.1" y="366.4999">ITicketRepository</text><line style="stroke:#181818;stroke-width:0.5;" x1="1814" x2="2014" y1="377.0679" y2="377.0679"/><line style="stroke:#181818;stroke-width:0.5;" x1="1814" x2="2014" y1="385.0679" y2="385.0679"/><text fill="#000000" font-family="sans-serif" font-size="14" lengthAdjust="spacing" textLength="190" x="1819" y="404.0339">+guardar(ticket: Ticket): void</text></g><!--class ServicioCompra--><g id="elem_ServicioCompra"><rect codeLine="96" fill="#F1F1F1" height="86.1358" id="ServicioCompra" rx="5" ry="5" style="stroke:#181818;stroke-width:0.5;" width="623" x="932.5" y="94.5679"/><ellipse cx="1187.25" cy="110.5679" fill="#ADD1B2" rx="11" ry="11" style="stroke:#181818;stroke-width:1.0;"/><path d="M1190.2188,116.2085 Q1189.6406,116.5054 1189,116.646 Q1188.3594,116.8023 1187.6563,116.8023 Q1185.1563,116.8023 1183.8281,115.1617 Q1182.5156,113.5054 1182.5156,110.3804 Q1182.5156,107.2554 1183.8281,105.5992 Q1185.1563,103.9429 1187.6563,103.9429 Q1188.3594,103.9429 1189,104.0992 Q1189.6563,104.2554 1190.2188,104.5523 L1190.2188,107.271 Q1189.5938,106.6929 1189,106.4273 Q1188.4063,106.146 1187.7813,106.146 Q1186.4375,106.146 1185.75,107.2242 Q1185.0625,108.2867 1185.0625,110.3804 Q1185.0625,112.4742 1185.75,113.5523 Q1186.4375,114.6148 1187.7813,114.6148 Q1188.4063,114.6148 1189,114.3492 Q1189.5938,114.0679 1190.2188,113.4898 L1190.2188,116.2085 Z " fill="#000000"/><text fill="#000000" font-family="sans-serif" font-size="14" lengthAdjust="spacing" textLength="105" x="1207.75" y="115.9999">ServicioCompra</text><line style="stroke:#181818;stroke-width:0.5;" x1="933.5" x2="1554.5" y1="126.5679" y2="126.5679"/><line style="stroke:#181818;stroke-width:0.5;" x1="933.5" x2="1554.5" y1="134.5679" y2="134.5679"/><text fill="#000000" font-family="sans-serif" font-size="14" lengthAdjust="spacing" textLength="611" x="938.5" y="153.5339">+crearCompra(usuario: Usuario, funcion: Funcion, entrada: Entrada, cantidad: int): Compra</text><text fill="#000000" font-family="sans-serif" font-size="14" lengthAdjust="spacing" textLength="283" x="938.5" y="172.6018">+pagarCompra(compra: Compra): Boolean</text></g><!--class ServicioTickets--><g id="elem_ServicioTickets"><rect codeLine="101" fill="#F1F1F1" height="67.0679" id="ServicioTickets" rx="5" ry="5" style="stroke:#181818;stroke-width:0.5;" width="312" x="1674" y="104.0679"/><ellipse cx="1776.75" cy="120.0679" fill="#ADD1B2" rx="11" ry="11" style="stroke:#181818;stroke-width:1.0;"/><path d="M1779.7188,125.7085 Q1779.1406,126.0054 1778.5,126.146 Q1777.8594,126.3023 1777.1563,126.3023 Q1774.6563,126.3023 1773.3281,124.6617 Q1772.0156,123.0054 1772.0156,119.8804 Q1772.0156,116.7554 1773.3281,115.0992 Q1774.6563,113.4429 1777.1563,113.4429 Q1777.8594,113.4429 1778.5,113.5992 Q1779.1563,113.7554 1779.7188,114.0523 L1779.7188,116.771 Q1779.0938,116.1929 1778.5,115.9273 Q1777.9063,115.646 1777.2813,115.646 Q1775.9375,115.646 1775.25,116.7242 Q1774.5625,117.7867 1774.5625,119.8804 Q1774.5625,121.9742 1775.25,123.0523 Q1775.9375,124.1148 1777.2813,124.1148 Q1777.9063,124.1148 1778.5,123.8492 Q1779.0938,123.5679 1779.7188,122.9898 L1779.7188,125.7085 Z " fill="#000000"/><text fill="#000000" font-family="sans-serif" font-size="14" lengthAdjust="spacing" textLength="98" x="1797.25" y="125.4999">ServicioTickets</text><line style="stroke:#181818;stroke-width:0.5;" x1="1675" x2="1985" y1="136.0679" y2="136.0679"/><line style="stroke:#181818;stroke-width:0.5;" x1="1675" x2="1985" y1="144.0679" y2="144.0679"/><text fill="#000000" font-family="sans-serif" font-size="14" lengthAdjust="spacing" textLength="300" x="1680" y="163.0339">+emitirTickets(compra: Compra): List&lt;Ticket&gt;</text></g><!--reverse link Teatro to Funcion--><g id="link_Teatro_Funcion"><path codeLine="108" d="M699,443.3279 C699,475.9579 699,505.9179 699,538.5079 " fill="none" id="Teatro-backto-Funcion" style="stroke:#2C3E50;stroke-width:1.0;"/><polygon fill="none" points="699,431.3279,695,437.3279,699,443.3279,703,437.3279,699,431.3279" style="stroke:#2C3E50;stroke-width:1.0;"/><text fill="#000000" font-family="sans-serif" font-size="13" lengthAdjust="spacing" textLength="60" x="700" y="494.9649">programa</text><text fill="#000000" font-family="sans-serif" font-size="13" lengthAdjust="spacing" textLength="7" x="691.5516" y="453.106">1</text><text fill="#000000" font-family="sans-serif" font-size="13" lengthAdjust="spacing" textLength="20" x="677.5938" y="526.8537">0..*</text></g><!--reverse link Funcion to Asiento--><g id="link_Funcion_Asiento"><path codeLine="109" d="M660.0094,653.7821 C642.7194,681.1421 627.94,704.5279 610.64,731.9079 " fill="none" id="Funcion-backto-Asiento" style="stroke:#2C3E50;stroke-width:1.0;"/><polygon fill="#2C3E50" points="666.42,643.6379,659.8333,646.5732,660.0094,653.7821,666.5961,650.8469,666.42,643.6379" style="stroke:#2C3E50;stroke-width:1.0;"/><text fill="#000000" font-family="sans-serif" font-size="13" lengthAdjust="spacing" textLength="50" x="640" y="697.9649">asientos</text><text fill="#000000" font-family="sans-serif" font-size="13" lengthAdjust="spacing" textLength="7" x="654.5718" y="665.775">1</text><text fill="#000000" font-family="sans-serif" font-size="13" lengthAdjust="spacing" textLength="20" x="593.8238" y="720.2396">1..*</text></g><!--link Compra to Entrada--><g id="link_Compra_Entrada"><path codeLine="111" d="M265.02,450.2379 C253.36,474.5279 241.87,502.3479 235,529.0679 C217.36,597.7079 214.6812,673.9682 215.1912,725.9982 " fill="none" id="Compra-to-Entrada" style="stroke:#2C3E50;stroke-width:1.0;"/><polygon fill="#2C3E50" points="215.25,731.9979,219.1616,722.9591,215.201,726.9982,211.162,723.0376,215.25,731.9979" style="stroke:#2C3E50;stroke-width:1.0;"/><text fill="#000000" font-family="sans-serif" font-size="13" lengthAdjust="spacing" textLength="71" x="236" y="596.4649">tipoEntrada</text><text fill="#000000" font-family="sans-serif" font-size="13" lengthAdjust="spacing" textLength="7" x="253.6393" y="472.4214">1</text><text fill="#000000" font-family="sans-serif" font-size="13" lengthAdjust="spacing" textLength="7" x="207.5117" y="720.3423">1</text></g><!--link Entrada to Compra--><g id="link_Entrada_Compra"><path codeLine="120" d="M177.87,731.8879 C162.91,708.9979 147.62,680.9779 140,653.0679 C125.48,599.8979 117.74,579.4879 140,529.0679 C156.81,491.0079 183.9336,462.1946 215.1036,437.2746 " fill="none" id="Entrada-to-Compra" style="stroke:#2C3E50;stroke-width:1.0;"/><polygon fill="#2C3E50" points="219.79,433.5279,210.2626,436.0237,215.8847,436.6502,215.2582,442.2722,219.79,433.5279" style="stroke:#2C3E50;stroke-width:1.0;"/><text fill="#000000" font-family="sans-serif" font-size="13" lengthAdjust="spacing" textLength="68" x="141" y="596.4649">perteneceA</text><text fill="#000000" font-family="sans-serif" font-size="13" lengthAdjust="spacing" textLength="7" x="164.8752" y="720.2168">1</text><text fill="#000000" font-family="sans-serif" font-size="13" lengthAdjust="spacing" textLength="20" x="191.9882" y="434.2876">0..*</text></g><!--reverse link Compra to Ticket--><g id="link_Compra_Ticket"><path codeLine="112" d="M293.336,462.314 C293.766,479.174 296.63,484.4979 305,499.0679 C311.39,510.1879 319.72,520.0979 329.21,528.8879 " fill="none" id="Compra-backto-Ticket" style="stroke:#2C3E50;stroke-width:1.0;"/><polygon fill="none" points="293.03,450.3179,289.1843,456.4179,293.336,462.314,297.1817,456.214,293.03,450.3179" style="stroke:#2C3E50;stroke-width:1.0;"/><text fill="#000000" font-family="sans-serif" font-size="13" lengthAdjust="spacing" textLength="42" x="306" y="494.9649">genera</text><text fill="#000000" font-family="sans-serif" font-size="13" lengthAdjust="spacing" textLength="7" x="284.5378" y="472.5096">1</text><text fill="#000000" font-family="sans-serif" font-size="13" lengthAdjust="spacing" textLength="20" x="297.7165" y="519.9497">0..*</text></g><!--link Ticket to Asiento--><g id="link_Ticket_Asiento"><path codeLine="113" d="M496.3,653.1879 C512.21,678.5779 527.2942,702.6436 542.5142,726.9336 " fill="none" id="Ticket-to-Asiento" style="stroke:#2C3E50;stroke-width:1.0;"/><polygon fill="#2C3E50" points="545.7,732.0179,544.3108,722.2675,543.0451,727.781,537.5317,726.5153,545.7,732.0179" style="stroke:#2C3E50;stroke-width:1.0;"/><text fill="#000000" font-family="sans-serif" font-size="13" lengthAdjust="spacing" textLength="39" x="527" y="697.9649">asigna</text><text fill="#000000" font-family="sans-serif" font-size="13" lengthAdjust="spacing" textLength="7" x="493.3238" y="675.2755">1</text><text fill="#000000" font-family="sans-serif" font-size="13" lengthAdjust="spacing" textLength="7" x="533.6656" y="720.3651">1</text></g><!--link Ticket to Entrada--><g id="link_Ticket_Entrada"><path codeLine="114" d="M381.08,653.1879 C346.37,680.7679 310.7778,709.0555 278.8078,734.4555 " fill="none" id="Ticket-to-Entrada" style="stroke:#2C3E50;stroke-width:1.0;"/><polygon fill="#2C3E50" points="274.11,738.1879,283.645,735.7212,278.0248,735.0776,278.6685,729.4575,274.11,738.1879" style="stroke:#2C3E50;stroke-width:1.0;"/><text fill="#000000" font-family="sans-serif" font-size="13" lengthAdjust="spacing" textLength="84" x="339" y="697.9649">correspondeA</text><text fill="#000000" font-family="sans-serif" font-size="13" lengthAdjust="spacing" textLength="7" x="364.7814" y="675.2755">1</text><text fill="#000000" font-family="sans-serif" font-size="13" lengthAdjust="spacing" textLength="7" x="281.8757" y="728.0856">1</text></g><!--link Compra to Funcion--><g id="link_Compra_Funcion"><path codeLine="115" d="M388.24,435.2279 C397.15,440.4579 406.18,445.5079 415,450.0679 C497.33,492.6379 526.2,485.4879 608,529.0679 C613.88,532.1979 614.6996,532.5133 620.6296,536.0833 " fill="none" id="Compra-to-Funcion" style="stroke:#2C3E50;stroke-width:1.0;"/><polygon fill="#2C3E50" points="625.77,539.1779,620.1225,531.1091,621.4864,536.5991,615.9964,537.9629,625.77,539.1779" style="stroke:#2C3E50;stroke-width:1.0;"/><text fill="#000000" font-family="sans-serif" font-size="13" lengthAdjust="spacing" textLength="40" x="540" y="494.9649">esPara</text><text fill="#000000" font-family="sans-serif" font-size="13" lengthAdjust="spacing" textLength="7" x="396.0543" y="436.4305">1</text><text fill="#000000" font-family="sans-serif" font-size="13" lengthAdjust="spacing" textLength="7" x="610.8572" y="529.8731">1</text></g><!--reverse link Usuario to Compra--><g id="link_Usuario_Compra"><path codeLine="117" d="M361.8504,239.3089 C350.9904,265.2789 343.91,282.1679 333.61,306.8079 " fill="none" id="Usuario-backto-Compra" style="stroke:#2C3E50;stroke-width:1.0;"/><polygon fill="#2C3E50" points="366.48,228.2379,360.4749,232.2302,361.8504,239.3089,367.8555,235.3166,366.48,228.2379" style="stroke:#2C3E50;stroke-width:1.0;"/><text fill="#000000" font-family="sans-serif" font-size="13" lengthAdjust="spacing" textLength="36" x="355" y="272.9649">posee</text><text fill="#000000" font-family="sans-serif" font-size="13" lengthAdjust="spacing" textLength="7" x="356.083" y="250.357">1</text><text fill="#000000" font-family="sans-serif" font-size="13" lengthAdjust="spacing" textLength="20" x="315.6323" y="295.447">0..*</text></g><!--reverse link Usuario to Ticket--><g id="link_Usuario_Ticket"><path codeLine="118" d="M416.1554,240.223 C426.8154,329.333 441.44,451.6079 450.7,529.0379 " fill="none" id="Usuario-backto-Ticket" style="stroke:#2C3E50;stroke-width:1.0;"/><polygon fill="#2C3E50" points="414.73,228.3079,411.471,234.7406,416.1554,240.223,419.4144,233.7903,414.73,228.3079" style="stroke:#2C3E50;stroke-width:1.0;"/><text fill="#000000" font-family="sans-serif" font-size="13" lengthAdjust="spacing" textLength="52" x="442" y="383.9649">contiene</text><text fill="#000000" font-family="sans-serif" font-size="13" lengthAdjust="spacing" textLength="7" x="408.3287" y="250.4328">1</text><text fill="#000000" font-family="sans-serif" font-size="13" lengthAdjust="spacing" textLength="20" x="428.5916" y="517.3656">0..*</text></g><!--link ServicioCompra to IPasarelaPago--><g id="link_ServicioCompra_IPasarelaPago"><path codeLine="122" d="M1244,180.7479 C1244,227.6479 1244,296.3979 1244,339.0079 " fill="none" id="ServicioCompra-to-IPasarelaPago" style="stroke:#2C3E50;stroke-width:1.0;stroke-dasharray:7.0,7.0;"/><polygon fill="#2C3E50" points="1244,345.0079,1248,336.0079,1244,340.0079,1240,336.0079,1244,345.0079" style="stroke:#2C3E50;stroke-width:1.0;"/><text fill="#000000" font-family="sans-serif" font-size="13" lengthAdjust="spacing" textLength="21" x="1245" y="272.9649">usa</text></g><!--link ServicioCompra to ICompraRepository--><g id="link_ServicioCompra_ICompraRepository"><path codeLine="123" d="M1185.76,180.7479 C1121,227.6479 1022.6496,298.8788 963.8096,341.4888 " fill="none" id="ServicioCompra-to-ICompraRepository" style="stroke:#2C3E50;stroke-width:1.0;stroke-dasharray:7.0,7.0;"/><polygon fill="#2C3E50" points="958.95,345.0079,968.5855,342.9689,962.9997,342.0753,963.8933,336.4895,958.95,345.0079" style="stroke:#2C3E50;stroke-width:1.0;"/><text fill="#000000" font-family="sans-serif" font-size="13" lengthAdjust="spacing" textLength="47" x="1080" y="272.9649">persiste</text></g><!--link ServicioCompra to INotificador--><g id="link_ServicioCompra_INotificador"><path codeLine="124" d="M1310,180.7479 C1383.4,227.6479 1495.3243,299.1668 1561.9943,341.7768 " fill="none" id="ServicioCompra-to-INotificador" style="stroke:#2C3E50;stroke-width:1.0;stroke-dasharray:7.0,7.0;"/><polygon fill="#2C3E50" points="1567.05,345.0079,1561.6206,336.7907,1562.837,342.3153,1557.3124,343.5316,1567.05,345.0079" style="stroke:#2C3E50;stroke-width:1.0;"/><text fill="#000000" font-family="sans-serif" font-size="13" lengthAdjust="spacing" textLength="44" x="1454" y="272.9649">notifica</text></g><!--link ServicioTickets to ITicketRepository--><g id="link_ServicioTickets_ITicketRepository"><path codeLine="126" d="M1841.5,171.2979 C1857.54,216.9379 1884.4702,293.5575 1900.5102,339.1875 " fill="none" id="ServicioTickets-to-ITicketRepository" style="stroke:#2C3E50;stroke-width:1.0;stroke-dasharray:7.0,7.0;"/><polygon fill="#2C3E50" points="1902.5,344.8479,1903.289,335.0307,1900.8418,340.1309,1895.7417,337.6838,1902.5,344.8479" style="stroke:#2C3E50;stroke-width:1.0;"/><text fill="#000000" font-family="sans-serif" font-size="13" lengthAdjust="spacing" textLength="47" x="1878" y="272.9649">persiste</text></g><!--link ServicioTickets to INotificador--><g id="link_ServicioTickets_INotificador"><path codeLine="127" d="M1800.97,171.2979 C1760.48,216.9379 1691.4818,294.7296 1651.0018,340.3596 " fill="none" id="ServicioTickets-to-INotificador" style="stroke:#2C3E50;stroke-width:1.0;stroke-dasharray:7.0,7.0;"/><polygon fill="#2C3E50" points="1647.02,344.8479,1655.9849,340.7699,1650.3382,341.1076,1650.0004,335.4609,1647.02,344.8479" style="stroke:#2C3E50;stroke-width:1.0;"/><text fill="#000000" font-family="sans-serif" font-size="13" lengthAdjust="spacing" textLength="44" x="1725" y="272.9649">notifica</text></g><!--SRC=[ZLLHRkCs4FtNAGRPZoQxTh1fqH-X6q1nrAs1L75j9_zZQQnm8v76a7AmNIpGG_G2FKjlqfEK4YMPYkLj_MDgPlZuXlDcQ8Gf2DQ4XXNyyyUVC5FbZX4oWbWQnWmrV8QrI9_9Q3YNOay5RFx-IujKNGI1VXPoXumbf0Lg7Hd3ObCPcgTAhiJl1E-z4Fs4cNeHCeSj5fey3wjAPgbYIGnN_fQ8MRtCLA4Otdm_-o7-qNVUACw8JtaRGd23wNFUmBkuboTXA0Y-WmzZFskFauTVLoVz9AiIOcri8kr5VGa05d5oEu-JTLoleu_HRMGNioYPnNVr-clWzgt5JhMNscpx62VnChgpgtYrVhYTHmxXSRwejvocEBkBLl5fZYxn1rqX2zKSD0MHXI2aQTPIbHkc45QsLZ9lJ5IYA0QMdSLuiVSxC1haJsGmgKfYDUQPFJuEp9WQiRUHDqeLXB9Eox5h1VU_o6M2AKs5ahsrX_cvahLZ16TBwHF-eXX3k4LRyIOdYoFK3MgBdwbgKz01ATA2fEaORKM10mwoJRc3fqO2nuJyyWu96LlyuGqtR8wPUBeQISbBf-FWoz4TfGmMFN1jIL4QaM4BTgX2qzOZHwKg4xdwRJaKoJ1dW7V0H78la1UAurf2vmCXNOImLoBx3p7V9-jbjBu_hMTBYdYBAS5yWHgP2bnWxahrpbBTCF9vgMprkfmdbjYMcAmuq2FZgT33J9GHMv7QrBY5bAs5X-bCe2IfyHEDvEVXkK8iQQUqC8e_jw2vRSVCGgQDEspBF0xXwd8ImZJki2sV1-6gkYBU2oijJqZscfYGdUMySgCXx6R41BQkZyAkeIP0JiXXf-Z9K4CNNG8D-0xp7lmelwFUx_XrZueZIAKmWblRCSgTqEOdvxt-jg2MTkZEvlV9DoPaEttEhiv0JQTmzlxoykrPFqn2svegjqy81fsfZdnRHruraTsm207TIWT1Uzjrv7HwtVntmo1ich_zyWEzmzjM324d-mXYq7xxS8DJSpaQSpZIlgPCUgTaHj4OkKEsf1VsmGo2xiNeatNCshtsLfGcEXNLyxSFlx4yxHlRSUbFVOr7R6nWQla5hpHxUNdzgjb3g3IEXXtrMuEihLveDDxlzx3lzGE5JfPDy54dZe0FDfn0_nS0]--></g></svg>